<svg width="18" height="17" viewBox="0 0 18 17" fill="none" xmlns="http://www.w3.org/2000/svg">
<path d="M17.5194 0.881092L16.7835 0.145149C16.5755 -0.0628416 16.1915 -0.0308325 15.9515 0.257113L13.3913 2.80108C12.2392 2.30514 10.9754 2.06514 9.64731 2.06514C5.69519 2.08107 2.27141 4.38504 0.62329 7.69725C0.527263 7.90524 0.527263 8.16117 0.62329 8.33716C1.39122 9.90518 2.54329 11.2012 3.9833 12.1772L1.8873 14.3051C1.6473 14.5451 1.61529 14.9291 1.77534 15.1371L2.51128 15.8731C2.71928 16.081 3.10326 16.049 3.34326 15.7611L17.3912 1.71321C17.6952 1.47334 17.7272 1.08938 17.5192 0.881366L17.5194 0.881092ZM10.4953 5.71298C10.2233 5.64896 9.93534 5.56901 9.66332 5.56901C8.30327 5.56901 7.21538 6.65703 7.21538 8.01694C7.21538 8.28895 7.2794 8.57689 7.35935 8.84892L6.28724 9.90495C5.96728 9.34499 5.7913 8.72089 5.7913 8.01697C5.7913 5.88899 7.50332 4.17697 9.6313 4.17697C10.3354 4.17697 10.9593 4.35295 11.5193 4.67291L10.4953 5.71298Z" fill="#666666" fill-opacity="0.8"/>
</svg>
